<svg xmlns="http://www.w3.org/2000/svg" width="4096" height="4096" viewBox="0 0 4096 4096">
  <defs>
    <style>
      .cls-1 {
        fill: #dd6032;
      }

      .cls-1, .cls-2 {
        fill-rule: evenodd;
      }

      .cls-2 {
        fill: #d8c2ba;
      }
    </style>
  </defs>
  <path id="颜色填充_1" data-name="颜色填充 1" class="cls-1" d="M1962.92,1778.11c28.94,35.28,59.49,54.75,90,54,26.86-.67,55.04-16.95,84-54,126.41-161.75,3.89-582.51-90-582C1953.22,1196.61,1830.82,1617.04,1962.92,1778.11Zm281.92,303.75c-4.52,45.41,3.28,80.79,25.37,101.84,19.46,18.54,50.89,26.98,97.57,21.3,203.77-24.81,414.99-408.8,348.3-474.88C2649.52,1664.16,2265.5,1874.57,2244.84,2081.86Zm220.06,346.25c-35.33,28.88-54.85,59.4-54.15,89.91,0.63,26.86,16.86,55.07,53.86,84.09,161.54,126.68,582.5,4.85,582.15-89.03C3046.41,2419.38,2626.19,2296.27,2464.9,2428.11Zm-600.79-346.25c4.52,45.41-3.28,80.79-25.37,101.84-19.45,18.54-50.88,26.98-97.56,21.3-203.78-24.81-414.99-408.8-348.31-474.88C1459.43,1664.16,1843.45,1874.57,1864.11,2081.86Zm-220.06,346.25c35.33,28.88,54.86,59.4,54.15,89.91-0.63,26.86-16.86,55.07-53.86,84.09-161.54,126.68-582.5,4.85-582.15-89.03C1062.54,2419.38,1482.76,2296.27,1644.05,2428.11Z"/>
  <path id="Shangri-NIa" class="cls-2" d="M1260,2799.46q-8.49,4.98-15.67,4.98-5.13,0-15.82-2.93-22.86-6.15-39.99-6.15-26.67,0-43.29,14.43t-16.63,37.57q0,22.425,12.46,35.01,12.435,12.6,40.13,18.02,35.895,7.035,47.46,15.24,16.11,11.565,16.12,29.29,0,15.39-11.58,24.47t-31.2,9.08q-24.9,0-40.28-12.75-15.375-12.735-18.46-35.74l-2.63-.73q-7.335,24.75-25.49,52.15l1.17,2.05q9.525-5.715,18.46-5.71a76.7,76.7,0,0,1,17.14,2.49l17.13,4.24q20.655,5.13,37.36,5.13,26.655,0,44.75-16.33t18.09-40.36q0-43.065-52.88-55.81l-24.76-6.01q-37.065-8.925-37.06-33.54,0-13.185,10.4-21.9t26.08-8.72q16.98,0,30.32,11.87a34.612,34.612,0,0,1,7.91,9.81q2.64,5.13,6.74,18.31c0.19,0.59.48,1.42,0.88,2.49l0.73-.87q2.925-4.98,11.86-26.96a97.614,97.614,0,0,1,12.16-21.38Zm6.89,4.98-0.74,1.18-9.96,19.33q-8.055,15.525-12.3,25.2l-0.59,1.32,3.52,1.46,0.73-1.02q1.32-2.49,11.57-24.03a207.1,207.1,0,0,1,10.26-19.33l1.31-2.2Zm-37.94,30.47a32.217,32.217,0,0,0-13.85-15.01q-9.45-5.355-22.04-5.35-13.185,0-21.39,7.18a23.57,23.57,0,0,0-8.2,18.6q0,16.41,19.33,25.05l0.74-1.17-1.18-.73q-14.79-11.43-14.79-22.27a20.873,20.873,0,0,1,7.32-16.4q7.335-6.45,18.46-6.45,18.45,0,34.57,17.14Zm32.66,59.62q15.825,16.845,15.82,39.26,0,26.52-20.58,45.19t-49.88,18.68a121.662,121.662,0,0,1-28.41-3.23l-22.56-5.42a89.737,89.737,0,0,0-20.07-2.63,36.749,36.749,0,0,0-15.53,3.51l1.76,4.25a35.207,35.207,0,0,1,15.38-3.37,72.675,72.675,0,0,1,17.58,2.05l23.44,5.72a116.989,116.989,0,0,0,28.56,3.22q31.05,0,52.73-19.41t21.68-47.39q0-26.22-19.92-41.31v0.88Zm-108.25,42.04q5.715,29.88,32.96,37.8v-1.18q-23.6-10.98-29.01-37.35Zm-1.46-33.62q10.83,5.355,42.48,12.68,21.825,5.13,29.51,8.64a42.173,42.173,0,0,1,14.28,11.13l1.03-.58a24.319,24.319,0,0,0-11.35-13.12q-7.995-4.3-32.01-10.32l-23.58-5.86q-23.445-5.715-28.28-14.36l-4.98-2.78Q1141.055,2897.605,1151.9,2902.95Zm161.71-86.49v65.91q-19.485,3.81-28.12,24.91l2.2,1.46q9.51-12.45,25.92-12.45v5.42q-14.2,1.17-22.7,11.86l3.07,1.47a23.378,23.378,0,0,1,19.63-9.67v64.02l-19.63,17.13h67.68l-18.75-15.82v-72.65c1.66,0.1,2.78.19,3.37,0.29l14.79,1.32q4.545,0.435,14.36.44a219.993,219.993,0,0,0,32.08-2.05v5.27q-10.4,3.81-24.46,3.81-8.655,0-27.98-1.47l-4.25-.29v67.38l19.92,21.83h-71.48l3.81,3.96h75.73l-24.17-27.84v-61.96l2.05,0.15q13.185,1.32,25.49,1.32a109.178,109.178,0,0,0,25.34-2.93v62.11l-20.07,17.13h67.38l-17.72-15.82V2818.07l20.21-19.49h-67.67l17.87,16.41v67.38a201.048,201.048,0,0,1-26.22,1.47q-10.545,0-21.83-1.03l-4.83-.44v-61.08l15.09-14.94-2.93-2.64-15.97,15.82v62.7a76.421,76.421,0,0,1-7.91-.88v-63.28l19.92-19.49h-68.85Zm147.51-12.75-16.26,16.11v152.64l19.63,22.12h-71.34l3.67,3.96h76.02l-24.31-27.84V2821.29l14.94-14.5Zm85.84-5.13,15.53,16.7-19.92,54.79a113.166,113.166,0,0,0-14.94-11.87l-2.35,3.23,1.32,1.02q4.98,3.96,12.31,10.4l1.75,1.47-2.63,6.44a74.02,74.02,0,0,1-8.06-6.59l-6.59-6.15c-0.29-.29-1.12-1.08-2.49-2.35a104.93,104.93,0,0,1-12.45,25.05q14.64,1.47,22.41,8.06l-0.59,2.05q-12,38.235-24.24,56.54a87.062,87.062,0,0,1-33.18,29.15h73.24c-1.17-1.26-2.05-2.19-2.63-2.78q-8.94-9.375-11.72-14.79t-2.78-13.63q0-7.905,3.95-19.92l4.83-14.94q2.94-9.075,4.84-13.77l6.44,6.74q-12.15,29.595-12.15,44.53a36.335,36.335,0,0,0,3,15.31q3,6.51,12.67,18.23l2.49,3.08h-74.56l2.93,3.96h79.1c-1.46-1.86-2.54-3.23-3.22-4.11q-12.015-14.94-15.16-21.31t-3.15-15.6q0-15.675,11.28-40.72l1.46,1.76q11.865,15.525,19.48,27.68l2.64,4.25a130.393,130.393,0,0,1,28.86-33.69l2.78,6.44-1.17,1.47q-17.145,17.715-25.78,32.08l3.37,0.88q8.64-14.655,24.75-30.91l16.26,42.77-20.21,16.99h73.97l-21.97-16.99-26.51-71.92q6.435-4.4,20.36-4.4,1.9,0,6.15.3a101.632,101.632,0,0,1-11.72-29.89,42.039,42.039,0,0,1-5.56,4.98l-4.84,4.11c-0.2.19-.88,0.73-2.05,1.61L1612,2819.68l14.8-17.14-3.81-1.61-15.53,17.87,21.68,57.71-5.86,3.23-24.02-63.87,15.23-17.29h-67.53Zm51.42,100.93a130.538,130.538,0,0,0-14.94,15.68l-1.47-2.2a147.288,147.288,0,0,0-12.3-16.41l-6.01-6.74a15.188,15.188,0,0,0-1.46-1.75l16.11-42.48Zm-22.56-59.62-18.75,49.52a152.543,152.543,0,0,1,23.88,28.56c-0.79.88-1.32,1.51-1.61,1.9l-2.05,2.49a11.605,11.605,0,0,1-1.47,1.62c-0.88-1.18-1.37-1.81-1.46-1.91l-6.74-9.37a203.272,203.272,0,0,0-19.19-22.56l23.29-61.53Zm77.49,27.98q3.225,13.92,12.6,31.2l1.76,3.23a131.057,131.057,0,0,0-17.58-1.32,44.769,44.769,0,0,0-11.43,1.32l26.08,68.99,26.36,23.29h-77.78l2.78,3.96h84.82l-32.67-28.86-24.46-64.89c1.56-.1,2.54-0.15,2.93-0.15q3.66,0,11.72.73l11.86,1.03c0.3,0,1.52.14,3.67,0.44q-12.9-22.995-16.12-36.18Zm153.22-69.29q16.41,7.92,20.58,16.48,4.185,8.58,4.18,34.06v76.17l-55.66-109.27,18.16-12.31-2.78-2.78-20.51,13.91,60.79,118.36v17.58l-70.9-138.28,20.8-13.92h-74.12l19.48,16.26v117.19q0,26.37-5.86,37.21t-23.73,17.28h68.27l7.61,8.06h-73.39l2.35,3.96h79.39l-12.74-13.63q-19.485-5.715-24.76-18.16t-5.27-52.59v-84.37l7.91,15.38v80.12l-0.15,13.77q0,36.48,20.22,43.22l-1.17-1.03q-10.41-7.035-13.33-21.68l-1.76-21.09,0.14-6.59v-79.55l69.14,134.18h24.76V2847.95q0-22.41,7.32-33.54,4.845-7.185,21.54-15.83h-66.51Zm51.05,21.61q-5.34,8.13-5.34,28.79v145.6h-29.45l1.91,3.96h31.49V2847.51q0-16.845,4.03-23.95t15.31-9.74l2.63-4.4Q1862.935,2812.06,1857.58,2820.19ZM2033,2808.4q-6.3,0-26.08-5.42-19.335-5.28-34.27-5.27-33.4,0-57.72,22.99-27.825,26.235-27.83,72.95,0,45.27,29.44,72.22,12.45,11.58,24.61,16.11,12.165,4.545,30.76,4.54h89.65l-18.75-16.11v-72.22l20.22-19.77H1961.37c-3.22,0-4.84-.64-4.84-1.91,0-.68.59-1.17,1.76-1.46l3.52-.73c3.12-.68,4.68-3.18,4.68-7.47a8.931,8.931,0,0,0-2.85-6.6,9.29,9.29,0,0,0-6.67-2.78,11.093,11.093,0,0,0-8.79,4.4,15.931,15.931,0,0,0-3.66,10.54q0,15.825,21.83,15.82h47.31v7.91h-36.47q-11.865,0-17.14-1.24a28.793,28.793,0,0,1-10.55-5.2v3.66a23.691,23.691,0,0,0,10.04,5.71q5.19,1.32,17.21,1.32h36.91v76.03h-23.58q-69.435,0-69.43-84.82,0-38.52,15.3-59.91,15.315-21.39,42.85-21.39,19.335,0,31.13,12.16t14.43,35.16l27.39-53.91a42.179,42.179,0,0,1-18.75,4.69h0Zm24.17,2.78-25.2,49.37,3.52,1.61,25.05-49.22Zm-43.51,23.15q-12.885-16.995-33.4-17-23.58,0-36.62,19.27t-13.03,53.98q0,31.485,7.47,49.87a57.46,57.46,0,0,0,24.46,28.5v-1.62q-15.675-12.585-21.53-28.27t-5.86-45.26q0-23.3,3.88-37.5t12.67-23a39.893,39.893,0,0,1,28.86-11.86q13.77,0,30.47,11.86l2.63,1.91v-0.88Zm53.32,49.07-16.84,16.99v71.78l20.21,22.41h-91.26l-7.32.15q-17.3,0-27.25-4.4h-3.07q9.36,7.035,18.6,8.06a76.021,76.021,0,0,0,7.62.29l52.73-.58,58.16,0.44-24.32-27.98v-68.7l15.09-15.09Zm31.64-66.8a87.408,87.408,0,0,1,13.92,6.89v72.07a57.382,57.382,0,0,1-7.32.44c-2.45,0-5.86-.15-10.26-0.44-0.2.58-.34,1.02-0.44,1.32q-1.755,6-2.05,6.59a70.494,70.494,0,0,0-2.93,9.52l1.61-.59q12.9-3.81,21.54-3.81v7.62l-1.18.29-7.76,1.91a84.928,84.928,0,0,0-10.11,3.37l1.32,2.93,1.17-.44a150.142,150.142,0,0,1,15.38-4.25l1.18-.15v49.22l-19.05,17.43h64.75l-16.7-17.43v-65.33l1.61-.29q25.2-3.075,34.28-5.72c0.39,0.88.63,1.47,0.73,1.76l1.47,4.25a23.822,23.822,0,0,0,1.02,2.2q-11.28,4.83-27.98,6.59l-3.07.44v59.03l21.24,22.56h-69.73l2.34,3.96h75.74L2153.56,2971v-54.79l1.17-.14q16.98-2.79,27.1-7.48l0.58,1.47q16.845,39.405,26.22,96.09l0.74,4.69,2.19-1.46a192.818,192.818,0,0,1,42.78-21.1l2.19-.73q-17.43-14.07-34.79-40.43a259.809,259.809,0,0,1-27.46-54.2q22.845-5.85,36.03-18.97t13.19-30.1q0-20.8-20.15-34.28-20.13-13.47-51.19-13.48a146.8,146.8,0,0,0-74.71,20.07Zm69-9.96q19.185,0,31.78,10.62t12.6,26.88q0,18.165-13.99,29.52t-42.84,16.62l-1.61.3v-69.14a62.01,62.01,0,0,1,15.67-1.76q11.43,0,19.63,3.29t19.04,12.09q-10.26-18.75-38.82-18.75a73.948,73.948,0,0,0-19.33,2.2v72.07a42.536,42.536,0,0,1-8.06.73v-78.96q10.545-5.7,25.93-5.71h0Zm87.74,42.48q0-20.79-14.79-34.28,11.565,16.995,11.57,31.35,0,34.875-44.83,51.86l0.88,2.49q24.18,61.815,66.36,89.94a208.617,208.617,0,0,0-59.62,26.95l2.93,2.35,1.32-.88a231.36,231.36,0,0,1,62.99-27.25q-22.41-14.355-37.06-32.37-23.445-28.86-32.67-59.04,42.915-17.43,42.92-51.12h0Zm46.14-32.22v152.78l-20.36,16.84h68.26L2330.95,2971V2818.51l19.63-19.93h-69.44Zm53.18-12.9-16.55,16.41v152.05l20.06,22.12H2287l3.66,3.96h76.18L2342.23,2971V2821.73l14.94-14.8Zm12.16,81.45,6.15,17.29h73.24l-6.3-17.29h-73.09Zm86.57,7.03-4.69-3.37,6.74,20.07h-76.17l3.22,4.1h78.52Zm114.26-93.9q16.395,7.92,20.58,16.48,4.17,8.58,4.17,34.06v76.17l-55.66-109.27,18.16-12.31-2.78-2.78-20.51,13.91,60.79,118.36v17.58l-70.9-138.28,20.8-13.92H2468.2l19.49,16.26v117.19q0,26.37-5.86,37.21t-23.73,17.28h68.26l7.62,8.06h-73.39l2.34,3.96h79.39l-12.74-13.63q-19.485-5.715-24.76-18.16t-5.27-52.59v-84.37l7.91,15.38v80.12l-0.15,13.77q0,36.48,20.22,43.22l-1.17-1.03q-10.41-7.035-13.33-21.68l-1.76-21.09,0.15-6.59v-79.55l69.14,134.18h24.75V2847.95q0-22.41,7.33-33.54,4.83-7.185,21.53-15.83h-66.5Zm51.05,21.61q-5.355,8.13-5.35,28.79v145.6h-29.44l1.9,3.96h31.49V2847.51q0-16.845,4.03-23.95t15.31-9.74l2.64-4.4Q2624.06,2812.06,2618.72,2820.19Zm48.85-3.29v152.78l-20.36,16.84h68.26L2697.01,2971V2818.51l19.63-19.93h-69.43Zm53.17-12.9-16.55,16.41v152.05l20.07,22.12h-71.19l3.66,3.96h76.17L2708.29,2971V2821.73l14.94-14.8Zm86.28-5.42,15.53,16.7-19.92,54.79a113.166,113.166,0,0,0-14.94-11.87l-2.35,3.23,1.32,1.02q4.98,3.96,12.31,10.4l1.75,1.47-2.63,6.44a74.02,74.02,0,0,1-8.06-6.59l-6.59-6.15c-0.29-.29-1.13-1.08-2.49-2.35a104.93,104.93,0,0,1-12.45,25.05q14.64,1.47,22.41,8.06l-0.59,2.05q-12.015,38.235-24.24,56.54a87.209,87.209,0,0,1-33.18,29.15h73.24c-1.17-1.26-2.05-2.19-2.63-2.78q-8.94-9.375-11.72-14.79t-2.79-13.63q0-7.905,3.96-19.92l4.83-14.94q2.94-9.075,4.84-13.77l6.44,6.74q-12.15,29.595-12.16,44.53a36.179,36.179,0,0,0,3.01,15.31q3,6.51,12.67,18.23l2.49,3.08h-74.56l2.93,3.96h79.1q-2.205-2.79-3.22-4.11-12.015-14.94-15.16-21.31-3.165-6.375-3.15-15.6,0-15.675,11.28-40.72l1.46,1.76q11.865,15.525,19.48,27.68l2.64,4.25a130.2,130.2,0,0,1,28.86-33.69l2.78,6.44-1.17,1.47q-17.145,17.715-25.78,32.08l3.37,0.88q8.64-14.655,24.75-30.91l16.26,42.77-20.21,16.99h73.97l-21.97-16.99-26.51-71.92q6.435-4.4,20.36-4.4c1.26,0,3.32.1,6.15,0.3a101.632,101.632,0,0,1-11.72-29.89,41.667,41.667,0,0,1-5.57,4.98l-4.83,4.11c-0.2.19-.88,0.73-2.05,1.61l-20.51-54.64,14.8-17.14-3.81-1.61-15.53,17.87,21.68,57.71-5.86,3.23-24.02-63.87,15.23-17.29h-67.53Zm51.42,100.93a128.981,128.981,0,0,0-14.94,15.68l-1.47-2.2a147.288,147.288,0,0,0-12.3-16.41l-6.01-6.74a15.188,15.188,0,0,0-1.46-1.75l16.11-42.48Zm-22.56-59.62-18.75,49.52a152.543,152.543,0,0,1,23.88,28.56c-0.79.88-1.32,1.51-1.61,1.9l-2.06,2.49a10.555,10.555,0,0,1-1.46,1.62c-0.88-1.18-1.37-1.81-1.47-1.91l-6.73-9.37a204.354,204.354,0,0,0-19.19-22.56l23.29-61.53Zm77.49,27.98q3.225,13.92,12.6,31.2l1.76,3.23a131.057,131.057,0,0,0-17.58-1.32,44.769,44.769,0,0,0-11.43,1.32l26.08,68.99,26.36,23.29h-77.78l2.78,3.96h84.82l-32.67-28.86-24.46-64.89c1.56-.1,2.54-0.15,2.93-0.15q3.66,0,11.72.73l11.86,1.03c0.29,0,1.51.14,3.66,0.44q-12.885-22.995-16.11-36.18Z"/>
</svg>
