<svg xmlns="http://www.w3.org/2000/svg" width="4096" height="4096" viewBox="0 0 4096 4096">
  <defs>
    <style>
      .cls-1 {
        fill: #d8c2ba;
        fill-rule: evenodd;
      }
    </style>
  </defs>
  <path id="_402" data-name="402" class="cls-1" d="M1879.85,2081.87q0,27.825-15.53,66.57t-36.62,63.5l-0.73.88v4.98h86.28v7.91h-84.52l3.22,3.81h81.3v22.85l-18.02,14.51h62.7l-17.29-15.39V2217.8h12.75c5.07,0,7.61,1.18,7.61,3.52a2.529,2.529,0,0,1-.29,1.17l-1.02,1.17a6.35,6.35,0,0,0-1.03,3.96q0,7.035,9.38,7.03a9.186,9.186,0,0,0,7.03-3,10.7,10.7,0,0,0,2.78-7.55,13.429,13.429,0,0,0-6.59-12.16q-6.6-4.095-19.48-4.1v-80.42l-3.96-.88v81.3h-7.18v-87.01h-2.78q-7.185,11.715-23.73,22.27c-0.2.09-.49,0.24-0.88,0.44v64.3h-52q44.67-45.555,66.65-118.36l0.58-1.9-3.07-1.91-0.44,1.18q-11.13,36.465-26.29,63.35t-41.24,56.62l-0.88,1.02h-7.62v-3.66l0.88-1.03a351.252,351.252,0,0,0,42.78-61.52q18.75-33.975,23.43-58.45l0.15-1.31h-36.33Zm98.29,131.69q5.565,6,6.67,7.91a11.723,11.723,0,0,1,1.1,5.71,12.93,12.93,0,0,1-3.45,9.23,11.267,11.267,0,0,1-8.56,3.66q-3.96,0-9.67-2.78v1.75a22.643,22.643,0,0,0,11.42,3.52,12.029,12.029,0,0,0,9.38-4.32,15.691,15.691,0,0,0,3.81-10.77,15.457,15.457,0,0,0-3.52-9.74q-3.51-4.47-8.06-5.05c0.39,0.39.69,0.68,0.88,0.88h0Zm-26.36,37.79v-24.17h-3.96v25.49l19.04,22.26h-68.84l3.37,3.96h73.68Zm162.3-137.7q-11.13-17.28-30.32-17.28-20.52,0-29.66,18.24-9.165,18.225-9.16,59.1,0,51.855,13.48,68.41,9.51,11.43,20.36,13.18v-1.46q-15.675-5.565-22.85-24.17t-7.18-53.47q0-39.84,8.13-57.79t26.15-17.94q17.715,0,28.85,14.5Zm-87.3-11.64q-20.07,25.995-20.07,69.06,0,44.685,20.73,71.78,20.715,27.105,54.85,27.1,33.555,0,53.03-25.05t19.48-68.26q0-52.44-26.36-79.39-20.52-21.24-48.34-21.24Q2046.845,2076.01,2026.78,2102.01Zm88.18,7.03q10.545,19.41,10.55,65.26,0,83.64-42.48,83.64-47.46,0-47.47-84.08,0-44.235,10.41-64.24t33.54-19.99Q2104.41,2089.63,2114.96,2109.04Zm5.13-25.86a78.8,78.8,0,0,1,32.3,35.75q10.47,22.845,10.47,57.86,0,47.76-20.8,74.56t-57.86,26.8q-25.35,0-46.73-17.57l-1.32,1.02q12.885,11.28,23.95,15.75t26,4.47q32.52,0,54.2-22.12,26.8-27.255,26.81-84.67,0-34.275-12.38-58.81t-34.64-34.35v1.31Zm205.51,142.68q-3.225,12.6-12.45,16.33t-37.2,3.74h-45.71q6.885-16.845,39.11-34.28l20.07-10.99q48.045-26.07,48.05-64.3,0-33.405-27.98-47.9l-0.88,1.17q24.615,18.6,24.61,46.73a53.654,53.654,0,0,1-11.06,33.32q-11.055,14.58-35.37,27.76l-20.22,10.84q-30.465,16.56-41.75,37.65h-9.37c0.29-.49.53-0.88,0.73-1.17q14.64-25.785,39.26-39.26l22.41-12.31q47.61-26.355,47.61-60.2,0-23.295-19.78-39.41t-48.48-16.11q-26.52,0-44.02,13.99t-17.51,35.38q0,16.11,10.92,26.58,10.9,10.485,27.75,10.48,12.015,0,20.44-6.96a29.261,29.261,0,0,0,10.33-18.38l-2.35-1.32q-8.34,8.79-18.02,8.79a20.82,20.82,0,0,1-16.26-7.26q-6.435-7.245-6.44-18.09a28.5,28.5,0,0,1,10.18-22.48q10.185-8.865,25.85-8.86,18.315,0,28.79,10.4t10.47,28.56a58.078,58.078,0,0,1-15.67,40.28q-7.9,8.505-31.06,23-25.635,16.125-39.33,33.84a103.642,103.642,0,0,0-18.97,41.46h136.23v-41.02h-2.93Zm10.26,5.27v43.8H2203.88l2.63,3.96h133.3v-47.76h-3.95Zm-50.32-124.8q-9.885-9.09-24.83-9.08-12.6,0-21.02,7.39a23.481,23.481,0,0,0-8.42,18.39,21.42,21.42,0,0,0,4.76,13.84,19.53,19.53,0,0,0,12.23,7.25v-1.9q-13.335-5.865-13.33-18.61a20.048,20.048,0,0,1,7.54-15.82,27.378,27.378,0,0,1,18.39-6.44q25.92,0,34.57,27.83A29.708,29.708,0,0,0,2285.54,2106.33Zm-14.87,37.5q-5.565,28.56-34.86,28.56a30.907,30.907,0,0,1-12.6-2.34q-5.265-2.34-13.48-9.52l-1.61-1.32h-1.17q10.26,16.41,29.45,16.41,14.64,0,23.73-7.33,9.075-7.32,14.06-23.14Z"/>
</svg>
